<?xml version="1.0" encoding="UTF-8" standalone="no"?>
<!DOCTYPE svg PUBLIC "-//W3C//DTD SVG 1.1//EN"
 "http://www.w3.org/Graphics/SVG/1.1/DTD/svg11.dtd">
<!-- Generated by graphviz version 2.46.0 (20210118.1747)
 -->
<!-- Title: controllers_diagram Pages: 1 -->
<svg width="367pt" height="357pt"
 viewBox="0.00 0.00 367.00 357.00" xmlns="http://www.w3.org/2000/svg" xmlns:xlink="http://www.w3.org/1999/xlink">
<g id="graph0" class="graph" transform="scale(1 1) rotate(0) translate(4 353)">
<title>controllers_diagram</title>
<polygon fill="transparent" stroke="transparent" points="-4,4 -4,-353 363,-353 363,4 -4,4"/>
<!-- _diagram_info -->
<g id="node1" class="node">
<title>_diagram_info</title>
<text text-anchor="start" x="158" y="-93.6" font-family="Times New Roman,serif" font-size="13.00">Controllers diagram</text>
<text text-anchor="start" x="158" y="-79.6" font-family="Times New Roman,serif" font-size="13.00">Date: Feb 09 2021 &#45; 12:13</text>
<text text-anchor="start" x="158" y="-65.6" font-family="Times New Roman,serif" font-size="13.00">Migration version: 20210121141833</text>
<text text-anchor="start" x="158" y="-51.6" font-family="Times New Roman,serif" font-size="13.00">Generated by RailRoady 1.5.3</text>
<text text-anchor="start" x="158" y="-37.6" font-family="Times New Roman,serif" font-size="13.00">http://railroady.prestonlee.com</text>
</g>
<!-- ApplicationController -->
<g id="node2" class="node">
<title>ApplicationController</title>
<path fill="none" stroke="black" d="M162,-135.5C162,-135.5 275,-135.5 275,-135.5 281,-135.5 287,-141.5 287,-147.5 287,-147.5 287,-217.5 287,-217.5 287,-223.5 281,-229.5 275,-229.5 275,-229.5 162,-229.5 162,-229.5 156,-229.5 150,-223.5 150,-217.5 150,-217.5 150,-147.5 150,-147.5 150,-141.5 156,-135.5 162,-135.5"/>
<text text-anchor="middle" x="218.5" y="-214.3" font-family="Times New Roman,serif" font-size="14.00">ApplicationController</text>
<polyline fill="none" stroke="black" points="150,-206.5 287,-206.5 "/>
<polyline fill="none" stroke="black" points="150,-182.5 287,-182.5 "/>
<polyline fill="none" stroke="black" points="150,-158.5 287,-158.5 "/>
<text text-anchor="start" x="158" y="-143.3" font-family="Times New Roman,serif" font-size="14.00">_layout</text>
</g>
<!-- HomeController -->
<g id="node3" class="node">
<title>HomeController</title>
<path fill="none" stroke="black" d="M207,-255.5C207,-255.5 290,-255.5 290,-255.5 296,-255.5 302,-261.5 302,-267.5 302,-267.5 302,-336.5 302,-336.5 302,-342.5 296,-348.5 290,-348.5 290,-348.5 207,-348.5 207,-348.5 201,-348.5 195,-342.5 195,-336.5 195,-336.5 195,-267.5 195,-267.5 195,-261.5 201,-255.5 207,-255.5"/>
<text text-anchor="middle" x="248.5" y="-333.3" font-family="Times New Roman,serif" font-size="14.00">HomeController</text>
<polyline fill="none" stroke="black" points="195,-325.5 302,-325.5 "/>
<text text-anchor="start" x="203" y="-310.3" font-family="Times New Roman,serif" font-size="14.00">index</text>
<polyline fill="none" stroke="black" points="195,-302.5 302,-302.5 "/>
<polyline fill="none" stroke="black" points="195,-278.5 302,-278.5 "/>
<text text-anchor="start" x="203" y="-263.3" font-family="Times New Roman,serif" font-size="14.00">_layout</text>
</g>
<!-- TracersController -->
<g id="node4" class="node">
<title>TracersController</title>
<path fill="none" stroke="black" d="M12,-0.5C12,-0.5 104,-0.5 104,-0.5 110,-0.5 116,-6.5 116,-12.5 116,-12.5 116,-201.5 116,-201.5 116,-207.5 110,-213.5 104,-213.5 104,-213.5 12,-213.5 12,-213.5 6,-213.5 0,-207.5 0,-201.5 0,-201.5 0,-12.5 0,-12.5 0,-6.5 6,-0.5 12,-0.5"/>
<text text-anchor="middle" x="58" y="-198.3" font-family="Times New Roman,serif" font-size="14.00">TracersController</text>
<polyline fill="none" stroke="black" points="0,-190.5 116,-190.5 "/>
<text text-anchor="start" x="8" y="-175.3" font-family="Times New Roman,serif" font-size="14.00">destroy</text>
<text text-anchor="start" x="8" y="-160.3" font-family="Times New Roman,serif" font-size="14.00">edit</text>
<text text-anchor="start" x="8" y="-145.3" font-family="Times New Roman,serif" font-size="14.00">index</text>
<text text-anchor="start" x="8" y="-130.3" font-family="Times New Roman,serif" font-size="14.00">new</text>
<text text-anchor="start" x="8" y="-115.3" font-family="Times New Roman,serif" font-size="14.00">show</text>
<text text-anchor="start" x="8" y="-100.3" font-family="Times New Roman,serif" font-size="14.00">update</text>
<text text-anchor="start" x="8" y="-85.3" font-family="Times New Roman,serif" font-size="14.00">create</text>
<polyline fill="none" stroke="black" points="0,-77.5 116,-77.5 "/>
<polyline fill="none" stroke="black" points="0,-53.5 116,-53.5 "/>
<text text-anchor="start" x="8" y="-38.3" font-family="Times New Roman,serif" font-size="14.00">set_tracer</text>
<text text-anchor="start" x="8" y="-23.3" font-family="Times New Roman,serif" font-size="14.00">tracer_params</text>
<text text-anchor="start" x="8" y="-8.3" font-family="Times New Roman,serif" font-size="14.00">_layout</text>
</g>
<!-- WelcomeController -->
<g id="node5" class="node">
<title>WelcomeController</title>
<path fill="none" stroke="black" d="M12,-240.5C12,-240.5 114,-240.5 114,-240.5 120,-240.5 126,-246.5 126,-252.5 126,-252.5 126,-321.5 126,-321.5 126,-327.5 120,-333.5 114,-333.5 114,-333.5 12,-333.5 12,-333.5 6,-333.5 0,-327.5 0,-321.5 0,-321.5 0,-252.5 0,-252.5 0,-246.5 6,-240.5 12,-240.5"/>
<text text-anchor="middle" x="63" y="-318.3" font-family="Times New Roman,serif" font-size="14.00">WelcomeController</text>
<polyline fill="none" stroke="black" points="0,-310.5 126,-310.5 "/>
<text text-anchor="start" x="8" y="-295.3" font-family="Times New Roman,serif" font-size="14.00">index</text>
<polyline fill="none" stroke="black" points="0,-287.5 126,-287.5 "/>
<polyline fill="none" stroke="black" points="0,-263.5 126,-263.5 "/>
<text text-anchor="start" x="8" y="-248.3" font-family="Times New Roman,serif" font-size="14.00">_layout</text>
</g>
</g>
</svg>
